<svg width="375" height="812" viewBox="0 0 375 812" fill="none" xmlns="http://www.w3.org/2000/svg">
<g opacity="0.45">
<rect width="818.757" height="375" transform="matrix(-4.37114e-08 -1 -1 4.37114e-08 375 818.757)" fill="#BBC6D7"/>
<mask id="mask0_1_1168" style="mask-type:luminance" maskUnits="userSpaceOnUse" x="0" y="0" width="375" height="819">
<rect width="818.757" height="375" transform="matrix(-4.37114e-08 -1 -1 4.37114e-08 375 818.757)" fill="white"/>
</mask>
<g mask="url(#mask0_1_1168)">
<path opacity="0.2" fill-rule="evenodd" clip-rule="evenodd" d="M280.428 579.731C337.612 613.231 395.819 587.985 410.437 523.343L411.505 518.62C426.123 453.978 391.616 374.418 334.432 340.918L248.478 290.564C191.294 257.064 133.087 282.31 118.469 346.952L117.401 351.675C102.783 416.317 137.29 495.877 194.474 529.377L280.428 579.731Z" fill="url(#paint0_linear_1_1168)"/>
<path opacity="0.2" fill-rule="evenodd" clip-rule="evenodd" d="M83.081 997.939C140.265 1031.44 198.472 1006.19 213.089 941.551L214.158 936.828C228.775 872.186 194.268 792.626 137.084 759.126L51.1304 708.772C-6.05365 675.272 -64.2605 700.517 -78.8781 765.159L-79.9462 769.883C-94.5638 834.525 -60.0569 914.085 -2.87286 947.585L83.081 997.939Z" fill="url(#paint1_linear_1_1168)"/>
<path opacity="0.2" fill-rule="evenodd" clip-rule="evenodd" d="M273.408 456.585C330.592 490.085 388.799 464.839 403.417 400.197L422.711 314.875C437.328 250.233 402.822 170.673 345.637 137.173L87.2005 -14.2268C30.0164 -47.7268 -28.1903 -22.4812 -42.8079 42.1608L-62.1021 127.483C-76.7197 192.125 -42.2128 271.685 14.9712 305.185L273.408 456.585Z" fill="url(#paint2_linear_1_1168)"/>
<path opacity="0.2" fill-rule="evenodd" clip-rule="evenodd" d="M427.643 -18.3334C484.827 15.1666 543.034 -10.079 557.652 -74.721L576.946 -160.044C591.563 -224.686 557.057 -304.245 499.872 -337.745L241.435 -489.145C184.251 -522.645 126.045 -497.399 111.427 -432.757L92.1329 -347.435C77.5153 -282.793 112.022 -203.233 169.206 -169.733L427.643 -18.3334Z" fill="url(#paint3_linear_1_1168)"/>
</g>
</g>
<defs>
<linearGradient id="paint0_linear_1_1168" x1="83.7112" y1="454.031" x2="351.617" y2="243.024" gradientUnits="userSpaceOnUse">
<stop stop-color="white"/>
<stop offset="1" stop-color="#F4F7FF"/>
</linearGradient>
<linearGradient id="paint1_linear_1_1168" x1="-113.636" y1="872.239" x2="154.269" y2="661.232" gradientUnits="userSpaceOnUse">
<stop stop-color="white"/>
<stop offset="1" stop-color="#F4F7FF"/>
</linearGradient>
<linearGradient id="paint2_linear_1_1168" x1="-100.567" y1="223.513" x2="256.76" y2="-87.3701" gradientUnits="userSpaceOnUse">
<stop stop-color="white"/>
<stop offset="1" stop-color="#F4F7FF"/>
</linearGradient>
<linearGradient id="paint3_linear_1_1168" x1="53.6675" y1="-251.405" x2="410.995" y2="-562.288" gradientUnits="userSpaceOnUse">
<stop stop-color="white"/>
<stop offset="1" stop-color="#F4F7FF"/>
</linearGradient>
</defs>
</svg>
